<svg xmlns="http://www.w3.org/2000/svg" xmlns:xlink="http://www.w3.org/1999/xlink" version="1.2" width="141.42mm" height="100mm" viewBox="0 0 141.42 100" stroke="none" fill="#000000" stroke-width="0.3" font-size="3.88">
<defs>
  <marker id="arrow" markerWidth="15" markerHeight="7" refX="5" refY="3.5" orient="auto" markerUnits="strokeWidth">
    <path d="M0,0 L15,3.5 L0,7 z" stroke="context-stroke" fill="context-stroke"></path>
  </marker>
</defs>
<g stroke-width="1.34" fill="#000000" fill-opacity="0.000" stroke="#D3D3D3" id="img-c1f795cf-1">
  <g transform="translate(73.36,34.09)">
    <path fill="none" d="M16.94,-12.39 L-16.94,12.39 " class="primitive"></path>
  </g>
  <g transform="translate(53.33,13.35)">
    <path fill="none" d="M35.05,4.23 L-35.05,-4.23 " class="primitive"></path>
  </g>
  <g transform="translate(112.26,38.62)">
    <path fill="none" d="M-13.96,-16.28 L13.96,16.28 " class="primitive"></path>
  </g>
  <g transform="translate(68.41,70.75)">
    <path fill="none" d="M-13.35,-16.86 L13.35,16.86 " class="primitive"></path>
  </g>
  <g transform="translate(31.81,29.08)">
    <path fill="none" d="M16.31,16.9 L-16.31,-16.9 " class="primitive"></path>
  </g>
  <g transform="translate(90.74,54.35)">
    <path fill="none" d="M-32.4,-3.77 L32.4,3.77 " class="primitive"></path>
  </g>
  <g transform="translate(107.31,75.28)">
    <path fill="none" d="M-17.76,13.04 L17.76,-13.04 " class="primitive"></path>
  </g>
</g>
<g stroke-width="1.34" stroke="#D3D3D3" id="img-c1f795cf-2">
</g>
<g font-size="4" stroke="#000000" stroke-opacity="0.000" fill="#000000" id="img-c1f795cf-3">
</g>
<g stroke-width="0" stroke="#000000" stroke-opacity="0.000" id="img-c1f795cf-4">
  <g transform="translate(94.87,18.36)" fill="#0000FF">
    <circle cx="0" cy="0" r="6.32" class="primitive"></circle>
  </g>
  <g transform="translate(51.84,49.83)" fill="#A0FF35">
    <circle cx="0" cy="0" r="6.32" class="primitive"></circle>
  </g>
  <g transform="translate(84.98,91.67)" fill="#24390F">
    <circle cx="0" cy="0" r="6.32" class="primitive"></circle>
  </g>
  <g transform="translate(11.79,8.33)" fill="#FF987F">
    <circle cx="0" cy="0" r="6.32" class="primitive"></circle>
  </g>
  <g transform="translate(129.64,58.88)" fill="#00D1FF">
    <circle cx="0" cy="0" r="6.32" class="primitive"></circle>
  </g>
</g>
<g font-size="4" stroke="#000000" stroke-opacity="0.000" fill="#000000" id="img-c1f795cf-5">
  <g transform="translate(94.87,18.36)">
    <g class="primitive">
      <text text-anchor="middle" dy="0.35em">0</text>
    </g>
  </g>
  <g transform="translate(51.84,49.83)">
    <g class="primitive">
      <text text-anchor="middle" dy="0.35em">1</text>
    </g>
  </g>
  <g transform="translate(84.98,91.67)">
    <g class="primitive">
      <text text-anchor="middle" dy="0.35em">2</text>
    </g>
  </g>
  <g transform="translate(11.79,8.33)">
    <g class="primitive">
      <text text-anchor="middle" dy="0.35em">3</text>
    </g>
  </g>
  <g transform="translate(129.64,58.88)">
    <g class="primitive">
      <text text-anchor="middle" dy="0.35em">4</text>
    </g>
  </g>
</g>
</svg>