<svg xmlns="http://www.w3.org/2000/svg" xmlns:xlink="http://www.w3.org/1999/xlink" version="1.2" width="141.42mm" height="100mm" viewBox="0 0 141.42 100" stroke="none" fill="#000000" stroke-width="0.3" font-size="3.88">
<defs>
  <marker id="arrow" markerWidth="15" markerHeight="7" refX="5" refY="3.5" orient="auto" markerUnits="strokeWidth">
    <path d="M0,0 L15,3.5 L0,7 z" stroke="context-stroke" fill="context-stroke"></path>
  </marker>
</defs>
<g stroke-width="1.34" fill="#000000" fill-opacity="0.000" stroke="#D3D3D3" id="img-10ab0a5b-1">
  <g transform="translate(84.98,52.93)">
    <path fill="none" d="M-13.26,-32.49 L13.26,32.49 " class="primitive"></path>
  </g>
  <g transform="translate(99.77,12.15)">
    <path fill="none" d="M-23.39,2.99 L23.39,-2.99 " class="primitive"></path>
  </g>
  <g transform="translate(56.36,53.82)">
    <path fill="none" d="M11.92,-33.33 L-11.92,33.33 " class="primitive"></path>
  </g>
  <g transform="translate(40.84,15.67)">
    <path fill="none" d="M22.47,0.23 L-22.47,-0.23 " class="primitive"></path>
  </g>
  <g transform="translate(114.85,49.12)">
    <path fill="none" d="M-13.15,36.27 L13.15,-36.27 " class="primitive"></path>
  </g>
  <g transform="translate(71.44,90.78)">
    <path fill="none" d="M22.04,-0.68 L-22.04,0.68 " class="primitive"></path>
  </g>
  <g transform="translate(27.3,53.52)">
    <path fill="none" d="M13.7,33.67 L-13.7,-33.67 " class="primitive"></path>
  </g>
</g>
<g stroke-width="1.34" stroke="#D3D3D3" id="img-10ab0a5b-2">
</g>
<g font-size="4" stroke="#000000" stroke-opacity="0.000" fill="#000000" id="img-10ab0a5b-3">
</g>
<g stroke-width="0" stroke="#000000" stroke-opacity="0.000" id="img-10ab0a5b-4">
  <g transform="translate(69.9,15.96)" fill="#0000FF">
    <circle cx="0" cy="0" r="6.32" class="primitive"></circle>
  </g>
  <g transform="translate(100.06,89.9)" fill="#A0FF35">
    <circle cx="0" cy="0" r="6.32" class="primitive"></circle>
  </g>
  <g transform="translate(129.64,8.33)" fill="#24390F">
    <circle cx="0" cy="0" r="6.32" class="primitive"></circle>
  </g>
  <g transform="translate(42.82,91.67)" fill="#FF987F">
    <circle cx="0" cy="0" r="6.32" class="primitive"></circle>
  </g>
  <g transform="translate(11.79,15.37)" fill="#00D1FF">
    <circle cx="0" cy="0" r="6.32" class="primitive"></circle>
  </g>
</g>
<g font-size="4" stroke="#000000" stroke-opacity="0.000" fill="#000000" id="img-10ab0a5b-5">
  <g transform="translate(69.9,15.96)">
    <g class="primitive">
      <text text-anchor="middle" dy="0.35em">0</text>
    </g>
  </g>
  <g transform="translate(100.06,89.9)">
    <g class="primitive">
      <text text-anchor="middle" dy="0.35em">1</text>
    </g>
  </g>
  <g transform="translate(129.64,8.33)">
    <g class="primitive">
      <text text-anchor="middle" dy="0.35em">2</text>
    </g>
  </g>
  <g transform="translate(42.82,91.67)">
    <g class="primitive">
      <text text-anchor="middle" dy="0.35em">3</text>
    </g>
  </g>
  <g transform="translate(11.79,15.37)">
    <g class="primitive">
      <text text-anchor="middle" dy="0.35em">4</text>
    </g>
  </g>
</g>
</svg>